inDegrees=no
num_controls=7
num_derivatives=13
num_iterations=135
num_multipliers=7
num_parameters=0
num_slacks=7
num_states=26
objective=0.480870
objective_accelerations=0.040863
objective_balance=0.003501
objective_effort=0.037671
objective_height=0.392806
objective_ligament=0.006028
solver_duration=1927.615834
status=Solve_Succeeded
success=true
DataType=double
version=3
OpenSimVersion=4.5
endheader
time	/jointset/ground_pelvis/pelvis_tilt/value	/jointset/ground_pelvis/pelvis_tx/value	/jointset/ground_pelvis/pelvis_ty/value	/jointset/hip_l/hip_flexion_l/value	/jointset/hip_l/hip_adduction_l/value	/jointset/hip_l/hip_rotation_l/value	/jointset/back/lumbar_extension/value	/jointset/patellofemoral_l/patellar_flexion_l/value	/jointset/knee_l/knee_flexion_l/value	/jointset/knee_l/knee_adduction_l/value	/jointset/knee_l/knee_rotation_l/value	/jointset/ankle_l/ankle_angle_l/value	/jointset/subtalar_l/subtalar_angle_l/value	/jointset/ground_pelvis/pelvis_tilt/speed	/jointset/ground_pelvis/pelvis_tx/speed	/jointset/ground_pelvis/pelvis_ty/speed	/jointset/hip_l/hip_flexion_l/speed	/jointset/hip_l/hip_adduction_l/speed	/jointset/hip_l/hip_rotation_l/speed	/jointset/back/lumbar_extension/speed	/jointset/patellofemoral_l/patellar_flexion_l/speed	/jointset/knee_l/knee_flexion_l/speed	/jointset/knee_l/knee_adduction_l/speed	/jointset/knee_l/knee_rotation_l/speed	/jointset/ankle_l/ankle_angle_l/speed	/jointset/subtalar_l/subtalar_angle_l/speed	/forceset/tau_hip_flexion_l	/forceset/tau_hip_adduction_l	/forceset/tau_hip_rotation_l	/forceset/tau_knee_flexion_l	/forceset/tau_ankle_angle_l	/forceset/tau_subtalar_angle_l	/forceset/tau_lumbar_extension	lambda_cid13_p0	lambda_cid13_p1	lambda_cid13_p2	lambda_cid13_p3	lambda_cid13_p4	lambda_cid13_p5	lambda_cid14_p0	/jointset/ground_pelvis/pelvis_tilt/accel	/jointset/ground_pelvis/pelvis_tx/accel	/jointset/ground_pelvis/pelvis_ty/accel	/jointset/hip_l/hip_flexion_l/accel	/jointset/hip_l/hip_adduction_l/accel	/jointset/hip_l/hip_rotation_l/accel	/jointset/back/lumbar_extension/accel	/jointset/patellofemoral_l/patellar_flexion_l/accel	/jointset/knee_l/knee_flexion_l/accel	/jointset/knee_l/knee_adduction_l/accel	/jointset/knee_l/knee_rotation_l/accel	/jointset/ankle_l/ankle_angle_l/accel	/jointset/subtalar_l/subtalar_angle_l/accel	gamma_cid13_p0	gamma_cid13_p1	gamma_cid13_p2	gamma_cid13_p3	gamma_cid13_p4	gamma_cid13_p5	gamma_cid14_p0
1	-0.08242376829375216	-0.05085146859677574	0.7113405367990501	1.217244524900011	-0.3317382441437365	0.04972858883911982	-0.9599309110048879	1.317691107254686	1.31769110726081	-0.07762190149683025	-0.1745298765878633	0.2750155610542648	0.05856306517822	0.1074320848782404	0.0273887389216345	0.06733504912579857	-0.2992229802211669	-0.004864551635392849	-0.06605887967505129	-0.0009166648175925917	-0.1619651745349379	-0.1619651745349397	-0.0001617221242528526	-3.178842082090016e-05	0.02092664101858309	0.003762603504895925	-0.3513794669841563	0.03392278932541577	-0.001342359386383593	-0.3591679264311279	0.03347998073169911	0.02314509062719858	0.4135522191539326	-39.92751797397393	-1.955023486477964	-1.405793014888013	12.77485279725808	-790.8619634473691	-61.92365834077024	-0.04280109729968382	0.7679236927411984	0.01808686290130816	1.374880739358451	-4.535717349919588	-0.06760441731892272	-1.584086298565421	0.1585913943063239	-4.69155229270743	-4.691552292708081	-0.2726770943092072	-0.01173729206355147	-1.255487921109251	-0.6051843942970734	-1.024078179384689e-08	1.405137567311512e-08	5.803907236478164e-08	8.186507352569953e-09	-2.42388726320434e-08	9.674171630425698e-08	-1.437195312082867e-08
1.01	-0.0813116272014333	-0.05057659387810808	0.7120823860134167	1.214026606151279	-0.3317895794259274	0.04898815800899457	-0.9599310234165631	1.315837355298237	1.315837355301222	-0.07763543496226279	-0.1745299840233987	0.2751622400300089	0.05857143680196397	0.1149776104461182	0.02759539855617427	0.08102110798072232	-0.3443229073807075	-0.005394852081136554	-0.08201910886387244	0.0009576385422655442	-0.2087719844523994	-0.2087719844523909	-0.002543672000913765	8.217845833807135e-06	0.008404375778202964	-0.002080276137560933	-0.3508176513095846	0.03413689224600473	-0.001410605400729595	-0.3587808239510688	0.03326690017918296	0.023268921043736	0.4134517379252464	-39.96602209466369	-2.014885899404635	-1.381600378713136	12.60964823173094	-790.6252025962204	-61.9668050308496	-0.0436642214298001	0.7450867517333958	0.02333737391090251	1.363409583810538	-4.491453647759388	-0.04460142156037949	-1.600780506286773	0.2113682158664302	-4.673256493891353	-4.673256493889377	-0.2207681517990554	0.01157659368644953	-1.25131317825013	-0.5726498471019652	-1.654257091379034e-08	5.390901813252221e-09	8.290269022576133e-08	1.393459787558688e-08	-2.999057199643381e-08	1.067149628441521e-07	-1.995364741390725e-08
1.02	-0.08012458690085072	-0.0502993761910589	0.7129606840413825	1.210358823481191	-0.3318459894252477	0.04808836703153087	-0.9599104891128469	1.313515933012088	1.313515933011936	-0.0776727507699526	-0.1745297499947432	0.2751835528827997	0.05852161760970701	0.1224119265308854	0.02785733259794166	0.09462481184568095	-0.3891957644917736	-0.005879495061211634	-0.09793090914254694	0.003212678263755127	-0.2554992404748959	-0.2554992404748722	-0.004918190575755955	3.650441874655895e-05	-0.004146583572087054	-0.007875559695297364	-0.3502558356350329	0.03435099516659083	-0.001478851415060782	-0.3583937214710116	0.03305381962666896	0.0233927514602703	0.4133512566965433	-40.01660755036392	-2.071611701723201	-1.359074502553353	12.49965119910996	-790.546657533464	-61.99155822341908	-0.04544337951620969	0.745681796119081	0.02914174434683569	1.358409741365428	-4.490303340224686	-0.0584729241851999	-1.574400516536093	0.2347386666325626	-4.675641513714442	-4.675641513714092	-0.2711908339454637	-0.01408123081194488	-1.261226743091227	-0.595665177352989	-2.237725675841524e-08	-4.926474483417002e-09	1.055445534319129e-07	1.853106106261498e-08	-3.581722771042615e-08	1.131965079714911e-07	-2.475656788235329e-08
1.03	-0.07886418989586412	-0.05001906876431245	0.7139745602150019	1.206243740909998	-0.3319070090571683	0.0470297979422969	-0.9598639251426618	1.310727718888798	1.310727718888212	-0.07773383626012	-0.1745292719259333	0.2750794464865318	0.05841420755677189	0.1296055571583196	0.02823298201505303	0.1081320670751941	-0.4337538132775391	-0.006316602966312938	-0.1137707779976825	0.006322011284923453	-0.3021225076360791	-0.302122507636075	-0.007299575238474919	5.61204320036477e-05	-0.01665608363201179	-0.01358693297125165	-0.3507128380264855	0.03469570829912307	-0.001577088452106834	-0.3575713750865427	0.03278475256511531	0.0236108681616308	0.4145142387548558	-40.09925384928088	-2.176508886150112	-1.314206276442047	12.03725461345372	-791.0277546071663	-62.0243411480848	-0.04862149084012912	0.6969139524505888	0.04610558089962644	1.34412167904094	-4.428518516683893	-0.03516687220131454	-1.58698510521478	0.3823149464771826	-4.652501895880738	-4.652501895883917	-0.2217270723310886	0.009563349411177811	-1.24302192778646	-0.5559581604200555	-2.820717624308791e-08	-1.526075794780875e-08	1.281637456721988e-07	2.311577295029624e-08	-4.164464828512872e-08	1.196424234925794e-07	-2.95515416791194e-08
